<svg xmlns="http://www.w3.org/2000/svg" viewBox="0 0 114.44 114.43"><defs><style>.cls-1{fill:#f9f9fa;}</style></defs><title>behance-icon_1</title><g id="Layer_2" data-name="Layer 2"><g id="notes"><path class="cls-1" d="M39.93,52.16H29.81V41.61h8.9a18.21,18.21,0,0,1,5.65.74c1.72.71,2.57,2.19,2.57,4.42q0,3-1.94,4.2A9.59,9.59,0,0,1,39.93,52.16Z"/><path class="cls-1" d="M47.91,66q0,4.43-3.15,6a11.16,11.16,0,0,1-4.84.84H29.81V60.08H40.08a12,12,0,0,1,4.78.81A5.13,5.13,0,0,1,47.91,66Z"/><path class="cls-1" d="M84,53.71a7.78,7.78,0,0,0-5.31-1.86,7.1,7.1,0,0,0-5.34,2,9.17,9.17,0,0,0-2.39,5.3H86.36A7.49,7.49,0,0,0,84,53.71Zm0,0a7.78,7.78,0,0,0-5.31-1.86,7.1,7.1,0,0,0-5.34,2,9.17,9.17,0,0,0-2.39,5.3H86.36A7.49,7.49,0,0,0,84,53.71ZM57.22,0a57.21,57.21,0,1,0,57.22,57.22A57.22,57.22,0,0,0,57.22,0ZM69,35.28H88.21v4.79H69Zm-13.09,39a13.14,13.14,0,0,1-8.78,6.16,33.36,33.36,0,0,1-6.76.65H18.78V33.3h23.1q8.73.13,12.39,5.09a12.21,12.21,0,0,1,2.19,7.31,10.64,10.64,0,0,1-2.21,7,11.16,11.16,0,0,1-3.64,2.72,10.62,10.62,0,0,1,5.51,4.23,12.68,12.68,0,0,1,1.86,7A14,14,0,0,1,55.86,74.33ZM95.65,65h-25q.21,5.16,3.58,7.23a9.06,9.06,0,0,0,4.94,1.28A7,7,0,0,0,86,69.63h9.14a11.12,11.12,0,0,1-3.32,6.19c-3.06,3.33-7.36,5-12.89,5A18.69,18.69,0,0,1,66.9,76.61q-5.22-4.23-5.22-13.73,0-8.91,4.71-13.66a16.55,16.55,0,0,1,12.26-4.75,19.56,19.56,0,0,1,8.06,1.6,13.86,13.86,0,0,1,5.91,5.07,16.84,16.84,0,0,1,2.74,7.09A44.65,44.65,0,0,1,95.65,65ZM84,53.71a7.78,7.78,0,0,0-5.31-1.86,7.1,7.1,0,0,0-5.34,2,9.17,9.17,0,0,0-2.39,5.3H86.36A7.49,7.49,0,0,0,84,53.71Z"/></g></g></svg>