<svg xmlns="http://www.w3.org/2000/svg" xmlns:xlink="http://www.w3.org/1999/xlink" viewBox="0 0 114.43 114.43"><defs><style>.cls-1{fill:none;}.cls-2{fill:#f9f9fa;}.cls-3{clip-path:url(#clip-path);}</style><clipPath id="clip-path"><rect class="cls-1" x="24.72" y="24.72" width="65" height="65"/></clipPath></defs><title>instagram-icon_1</title><g id="Layer_2" data-name="Layer 2"><g id="notes"><path class="cls-2" d="M68.05,57.22A10.84,10.84,0,1,1,57.22,46.38,10.83,10.83,0,0,1,68.05,57.22Z"/><path class="cls-2" d="M83.67,44.08a17.72,17.72,0,0,0-1.12-6,10.74,10.74,0,0,0-6.17-6.17,18.18,18.18,0,0,0-6-1.12c-3.43-.15-4.46-.19-13.13-.19s-9.71,0-13.14.19a18.18,18.18,0,0,0-6,1.12,10.74,10.74,0,0,0-6.17,6.17,18.24,18.24,0,0,0-1.12,6c-.16,3.43-.19,4.46-.19,13.14s0,9.7.19,13.13a18.18,18.18,0,0,0,1.12,6,10.74,10.74,0,0,0,6.17,6.17,17.66,17.66,0,0,0,6,1.12c3.43.16,4.46.19,13.14.19s9.7,0,13.13-.19a17.66,17.66,0,0,0,6-1.12,10.74,10.74,0,0,0,6.17-6.17,17.66,17.66,0,0,0,1.12-6c.16-3.43.19-4.46.19-13.13S83.83,47.51,83.67,44.08ZM57.22,73.91A16.69,16.69,0,1,1,73.9,57.22,16.69,16.69,0,0,1,57.22,73.91ZM74.56,43.77a3.9,3.9,0,1,1,3.9-3.9A3.91,3.91,0,0,1,74.56,43.77Z"/><path class="cls-2" d="M57.22,0a57.22,57.22,0,1,0,57.21,57.22A57.22,57.22,0,0,0,57.22,0Zm32.3,70.62A24,24,0,0,1,88,78.51,16.64,16.64,0,0,1,78.5,88a24,24,0,0,1-7.88,1.51c-3.47.16-4.58.2-13.4.2s-9.94,0-13.4-.2A24,24,0,0,1,35.93,88a16.64,16.64,0,0,1-9.51-9.5,24,24,0,0,1-1.51-7.89c-.16-3.47-.19-4.58-.19-13.4s0-9.94.19-13.4a24,24,0,0,1,1.51-7.89,16.62,16.62,0,0,1,9.51-9.51,24,24,0,0,1,7.89-1.51c3.46-.16,4.57-.19,13.4-.19s9.93,0,13.4.19a24,24,0,0,1,7.88,1.51A16.62,16.62,0,0,1,88,35.93a24,24,0,0,1,1.51,7.89c.16,3.46.2,4.57.2,13.4S89.68,67.15,89.52,70.62Z"/></g></g></svg>