<svg xmlns="http://www.w3.org/2000/svg" viewBox="0 0 114.44 114.43"><defs><style>.cls-1{fill:#f9f9fa;}</style></defs><title>linkedin-icon_1</title><g id="Layer_2" data-name="Layer 2"><g id="notes"><path class="cls-1" d="M57.22,0a57.22,57.22,0,1,0,57.22,57.22A57.22,57.22,0,0,0,57.22,0Zm-18,89.72H25.74V46.3h13.5ZM32.49,40.36a7.82,7.82,0,1,1,7.82-7.82A7.81,7.81,0,0,1,32.49,40.36ZM89.78,89.72H76.3V68.6c0-5-.1-11.51-7-11.51s-8.09,5.49-8.09,11.15V89.72H47.7V46.3h13v5.93h.18c1.8-3.41,6.2-7,12.77-7,13.65,0,16.18,9,16.18,20.68Z"/></g></g></svg>