<svg xmlns="http://www.w3.org/2000/svg" viewBox="0 0 114.43 114.44"><defs><style>.cls-1{fill:#0b3f3c;}</style></defs><title>logo-icon</title><g id="Layer_2" data-name="Layer 2"><g id="notes"><path class="cls-1" d="M57.21,0a57.22,57.22,0,1,0,57.22,57.22A57.21,57.21,0,0,0,57.21,0ZM50.48,78.82h-30V35.62H32.12V70H50.48ZM94,76a47.43,47.43,0,0,1-18.5,4c-12.46,0-23-8.86-23-22.83s11.23-22.54,24-22.54c6,0,12.09,1.59,15.69,4.32v9.94a21.34,21.34,0,0,0-14-5c-8,0-13.46,4.9-13.46,14,0,8.79,5.18,13.75,12.53,13.75A13.67,13.67,0,0,0,83,70.54V63.41H76.62V55.35H94Z"/></g></g></svg>