<svg xmlns="http://www.w3.org/2000/svg" viewBox="0 0 441.08 42.15"><defs><style>.cls-1{fill:#1e1e1e;}</style></defs><title>signature</title><g id="Layer_2" data-name="Layer 2"><g id="Layer_1-2" data-name="Layer 1"><path class="cls-1" d="M0,.94H10.86V33H28v8.18H0Z"/><path class="cls-1" d="M35.72.94H46.58V41.15H35.72Z"/><path class="cls-1" d="M54,.94H62.2L80.42,24.06V.94H90V41.15H81.76L63.54,18V41.15H54Z"/><path class="cls-1" d="M97.45.94h15.68C129.68.94,136.45,10,136.45,21s-6.77,20.11-23.32,20.11H97.45Zm14.81,31.83c9,0,13.13-3.68,13.13-11.73S121.31,9.32,112.26,9.32h-4V32.77Z"/><path class="cls-1" d="M140.48,36.73l2.41-7.91c3,2.54,7.37,5.36,12.67,5.36,3.28,0,5.83-1.27,5.83-4.09,0-2.61-1.75-3.69-7.51-5-9.18-2.14-12.33-7-12.33-13,0-7.3,5.76-12.06,14.74-12.06A23.59,23.59,0,0,1,169.5,4.09l-2.22,7.24a22.39,22.39,0,0,0-11.12-3.49c-2.88,0-4.69,1.21-4.69,3.22s1.2,3,5.76,4.09c10.05,2.34,14.14,6.56,14.14,13.8,0,9.45-7.64,13-15.81,13A23.31,23.31,0,0,1,140.48,36.73Z"/><path class="cls-1" d="M177.81.94h27.94V9.11H188.66v6.77H202.4V24H188.66v9h17.09v8.18H177.81Z"/><path class="cls-1" d="M227.4,25.06,211.65.94h11.93L233,16.15,242.35.94H254L238.26,25.06V41.15H227.4Z"/><path class="cls-1" d="M297.39,25.13h-8.24V21.85h11.93V38c-3.36,1.54-7.85,4.15-14.88,4.15C275,42.15,265.62,34,265.62,21S275,.07,286.2.07a23.52,23.52,0,0,1,13.2,4V8a20.79,20.79,0,0,0-13.2-4.49c-9.72,0-16.76,7-16.76,17.55s7,17.7,16.76,17.7A21.13,21.13,0,0,0,297.39,36Z"/><path class="cls-1" d="M331.84.94V4.22h-19.1V18.36h15.75v3.29H312.74V37.86h19.1v3.29H309.05V.94Z"/><path class="cls-1" d="M342.23.94V41.15h-3.69V.94Z"/><path class="cls-1" d="M351.68,33.84a17.27,17.27,0,0,0,11.79,4.9c5,0,9-3,9-7.78,0-4.49-2.21-7.24-9.85-9.31-6.83-1.88-10.59-6-10.59-11.53s4.76-10,12.13-10A18,18,0,0,1,374.2,3.42l-.81,3.15a17.66,17.66,0,0,0-9.25-3.22c-5.22,0-8.37,2.82-8.37,6.77,0,3.28,1.87,6.17,8.37,7.91,7.84,2.08,12.07,6,12.07,12.46,0,7.64-6.5,11.53-12.74,11.53a18.47,18.47,0,0,1-12.53-4.49Z"/><path class="cls-1" d="M406.37.94V4.22h-19.1V18.36H403v3.29H387.27V37.86h19.1v3.29H383.58V.94Z"/><path class="cls-1" d="M441.08,41.15h-4.35L425.2,24.53h-8.45V41.15h-3.68V.94h12.46c8.65,0,12.4,5.49,12.4,11.79,0,5.43-2.75,10.12-8.84,11.4Zm-6.83-28.42c0-4.15-2.08-8.51-8.72-8.51h-8.78v17h8.78C432.17,21.24,434.25,17,434.25,12.73Z"/></g></g></svg>