<svg xmlns="http://www.w3.org/2000/svg" viewBox="0 0 45 45"><defs><style>.cls-1{fill:#88aca9;}.cls-2{fill:#f9f9f9;}</style></defs><title>behance-icon</title><g id="Layer_2" data-name="Layer 2"><g id="Layer_2-2" data-name="Layer 2"><circle class="cls-1" cx="22.5" cy="22.5" r="22.5"/><path id="Behance" class="cls-2" d="M34.69,15.76H27.11V13.87h7.58v1.89ZM22.07,23.47a5,5,0,0,1,.73,2.76,5.48,5.48,0,0,1-.83,3,5.14,5.14,0,0,1-1.34,1.48,5.07,5.07,0,0,1-2.12.94,13,13,0,0,1-2.65.26H7.38V13.09h9.09c2.29,0,3.91.7,4.87,2A4.76,4.76,0,0,1,22.2,18a4.2,4.2,0,0,1-.87,2.77,4.41,4.41,0,0,1-1.43,1.07A4.18,4.18,0,0,1,22.07,23.47Zm-10.35-3h4a3.69,3.69,0,0,0,2-.47,1.77,1.77,0,0,0,.76-1.65,1.69,1.69,0,0,0-1-1.74,7.24,7.24,0,0,0-2.22-.29h-3.5ZM18.84,26a2,2,0,0,0-1.2-2,4.7,4.7,0,0,0-1.88-.31h-4v5h4a4.44,4.44,0,0,0,1.9-.33A2.38,2.38,0,0,0,18.84,26ZM37.5,22.9a17.56,17.56,0,0,1,.11,2.67H27.8a3.23,3.23,0,0,0,1.41,2.85,3.55,3.55,0,0,0,1.94.5,3,3,0,0,0,2-.61,3.19,3.19,0,0,0,.72-.93h3.6a4.44,4.44,0,0,1-1.31,2.44,6.53,6.53,0,0,1-5.07,2,7.35,7.35,0,0,1-4.74-1.65q-2.05-1.66-2.06-5.4a7.31,7.31,0,0,1,1.86-5.38,6.51,6.51,0,0,1,4.82-1.86,7.73,7.73,0,0,1,3.17.63,5.42,5.42,0,0,1,2.32,2A6.6,6.6,0,0,1,37.5,22.9ZM34,23.25A3,3,0,0,0,33,21.12a3.06,3.06,0,0,0-2.09-.73,2.78,2.78,0,0,0-2.1.77,3.59,3.59,0,0,0-.94,2.09Z"/></g></g></svg>