<svg xmlns="http://www.w3.org/2000/svg" viewBox="0 0 75.65 75.65"><defs><style>.cls-1{fill:#185d4f;}</style></defs><title>behance_1</title><g id="Layer_2" data-name="Layer 2"><g id="Layer_1-2" data-name="Layer 1"><path class="cls-1" d="M37.17,39.29a6.43,6.43,0,0,0-3.28-2.47,6.86,6.86,0,0,0,2.17-1.61A6.33,6.33,0,0,0,37.37,31a7.1,7.1,0,0,0-1.3-4.4c-1.45-2-3.9-3-7.36-3H15V52.06H27.79a19.32,19.32,0,0,0,4-.4A7.77,7.77,0,0,0,37,48a8.29,8.29,0,0,0,1.26-4.55A7.51,7.51,0,0,0,37.17,39.29ZM21.58,28.47h5.29a11,11,0,0,1,3.37.45,2.58,2.58,0,0,1,1.51,2.63A2.69,2.69,0,0,1,30.6,34a5.52,5.52,0,0,1-3,.71H21.51ZM30.5,46.69a6.55,6.55,0,0,1-2.87.5H21.58V39.63h6.05a7.07,7.07,0,0,1,2.84.46,3,3,0,0,1,1.82,3A3.61,3.61,0,0,1,30.5,46.69Z"/><rect class="cls-1" x="44.8" y="24.77" width="11.47" height="2.86"/><path class="cls-1" d="M53.94,46.62a4.56,4.56,0,0,1-3,.92A5.43,5.43,0,0,1,48,46.78a4.89,4.89,0,0,1-2.12-4.31H60.69a28.81,28.81,0,0,0-.17-4A10,10,0,0,0,59,34.29a8.27,8.27,0,0,0-3.52-3,11.59,11.59,0,0,0-4.8-1,9.83,9.83,0,0,0-7.28,2.81,11.06,11.06,0,0,0-2.81,8.14c0,3.76,1,6.49,3.11,8.17a11.1,11.1,0,0,0,7.17,2.49,9.93,9.93,0,0,0,7.67-3,6.82,6.82,0,0,0,2-3.7H55A4.7,4.7,0,0,1,53.94,46.62ZM47.38,35.8a4.14,4.14,0,0,1,3.17-1.17,4.59,4.59,0,0,1,3.16,1.11A4.51,4.51,0,0,1,55.22,39H46A5.44,5.44,0,0,1,47.38,35.8Z"/><path class="cls-1" d="M37.83,75.65A37.83,37.83,0,1,1,75.65,37.83,37.87,37.87,0,0,1,37.83,75.65ZM37.83,4A33.83,33.83,0,1,0,71.65,37.83,33.86,33.86,0,0,0,37.83,4Z"/></g></g></svg>