<svg xmlns="http://www.w3.org/2000/svg" viewBox="0 0 45 45"><defs><style>.cls-1{fill:#88aca9;}.cls-2{fill:#f9f9f9;}</style></defs><title>codepen-icon</title><g id="Layer_2" data-name="Layer 2"><g id="Layer_2-2" data-name="Layer 2"><circle class="cls-1" cx="22.5" cy="22.5" r="22.5"/><path class="cls-2" d="M8.9,22.46c0-1.28,0-2.56,0-3.84a1.48,1.48,0,0,1,.72-1.37l12-8a1.26,1.26,0,0,1,1.69,0l12.06,8a1.44,1.44,0,0,1,.71,1.31q0,3.93,0,7.87a1.42,1.42,0,0,1-.71,1.3q-6,4-12.06,8a1.26,1.26,0,0,1-1.69,0l-12-8a1.46,1.46,0,0,1-.72-1.34C8.91,25.1,8.9,23.78,8.9,22.46Zm7.36-1.37L21,17.91a.57.57,0,0,0,.3-.56c0-1.54,0-3.09,0-4.64,0-.12,0-.24,0-.44l-9.12,6.09Zm7.46-8.81a.73.73,0,0,0,0,.18c0,1.68,0,3.35,0,5a.55.55,0,0,0,.24.38c1.51,1,3,2,4.55,3.06a.41.41,0,0,0,.54,0c.9-.62,1.82-1.23,2.73-1.84l1.08-.72ZM21.33,32.74c0-1.75,0-3.4,0-5.05a.61.61,0,0,0-.32-.62c-1.49-1-3-2-4.44-3a3.37,3.37,0,0,0-.32-.19l-4.07,2.72Zm2.34,0,9.16-6.1L28.88,24a.43.43,0,0,0-.36,0c-1.54,1-3.07,2-4.59,3.08a.6.6,0,0,0-.24.45c0,.83,0,1.66,0,2.49ZM18.37,22.5l3.18,2.13c.31.2.63.56.93.56s.65-.35,1-.56l3.18-2.13-3.24-2.17c-.89-.6-.89-.6-1.78,0Zm-7.09-1.93v3.86l2.88-1.93ZM30.84,22.5l2.89,1.94V20.56Z"/></g></g></svg>