<svg xmlns="http://www.w3.org/2000/svg" viewBox="0 0 45 45"><defs><style>.cls-1{fill:#88aca9;}.cls-2{fill:#f9f9f9;}</style></defs><title>github-icon</title><g id="Layer_2" data-name="Layer 2"><g id="Layer_2-2" data-name="Layer 2"><path class="cls-1" d="M45,22.5A22.5,22.5,0,1,1,22.5,0,22.49,22.49,0,0,1,45,22.5Z"/><path class="cls-2" d="M38.11,23.25a12.15,12.15,0,0,1-1.44,5,8.31,8.31,0,0,1-3.93,3.43A15.45,15.45,0,0,1,28,32.88l-.23,0,.34.38a4.51,4.51,0,0,1,1.09,2.82c.07,2.33.07,4.66.07,7v0a21.51,21.51,0,0,1-6.79,1.09,21.21,21.21,0,0,1-4.61-.5,2.27,2.27,0,0,0,.07-.66c0-1.28,0-2.58,0-3.92l-.82.13a10.61,10.61,0,0,1-3.81-.19,4.19,4.19,0,0,1-3.07-2.53A12.74,12.74,0,0,0,9,34.3a7.84,7.84,0,0,0-1.23-1.14,8.34,8.34,0,0,1-.8-.77c-.24-.33-.17-.49.24-.59a2.88,2.88,0,0,1,2,.32,5.34,5.34,0,0,1,2.23,2.11,4.41,4.41,0,0,0,2.34,2.1,5.69,5.69,0,0,0,4-.3A.36.36,0,0,0,18,35.8,5.07,5.07,0,0,1,19.41,33c-.95-.18-1.84-.3-2.71-.52a9.4,9.4,0,0,1-5.84-3.71,10.88,10.88,0,0,1-1.69-4.93,12.64,12.64,0,0,1,.12-4.38,8.26,8.26,0,0,1,1.83-3.58.62.62,0,0,0,.14-.71,7.87,7.87,0,0,1,.28-5.49.55.55,0,0,1,.36-.23,4.24,4.24,0,0,1,2.25.45c1.12.52,2.23,1.1,3.33,1.69a1.19,1.19,0,0,0,.92.14,20.78,20.78,0,0,1,10.45,0,1.05,1.05,0,0,0,.91-.16,15,15,0,0,1,4.47-2.06l.08,0c1.12-.22,1.31-.1,1.63,1a7.77,7.77,0,0,1,0,4.86.53.53,0,0,0,.09.42A9.41,9.41,0,0,1,38.11,23.25Z"/></g></g></svg>