<svg xmlns="http://www.w3.org/2000/svg" viewBox="0 0 75.65 75.65"><defs><style>.cls-1{fill:#185d4f;}</style></defs><title>instagram_1</title><g id="Layer_2" data-name="Layer 2"><g id="Layer_1-2" data-name="Layer 1"><path class="cls-1" d="M45.51,30.17a10.88,10.88,0,1,0,3.19,7.7A10.85,10.85,0,0,0,45.51,30.17Zm-2.7,12.68a7,7,0,0,1-5,2.07h0a7.07,7.07,0,1,1,5-2.07Z"/><path class="cls-1" d="M51.67,26.52A2.54,2.54,0,1,1,49.08,24a.14.14,0,0,1,.09,0A2.54,2.54,0,0,1,51.67,26.52Z"/><path class="cls-1" d="M58.87,29.1a16,16,0,0,0-1-5.14,11,11,0,0,0-6.18-6.2,15.36,15.36,0,0,0-5.14-1c-2.26-.11-3-.13-8.73-.13s-6.48,0-8.74.13a15.4,15.4,0,0,0-5.14,1A10.93,10.93,0,0,0,17.77,24a16,16,0,0,0-1,5.14c-.1,2.25-.12,3-.12,8.73s0,6.47.12,8.72a16.17,16.17,0,0,0,1,5.15A11,11,0,0,0,24,57.89a15.92,15.92,0,0,0,5.14,1c2.26.12,3,.13,8.74.13s6.47,0,8.73-.13a15.87,15.87,0,0,0,5.14-1,11.06,11.06,0,0,0,6.18-6.19,16.17,16.17,0,0,0,1-5.15c.1-2.25.12-3,.12-8.72S59,31.35,58.87,29.1ZM55.06,46.37a12,12,0,0,1-.73,3.93,7.09,7.09,0,0,1-4,4,11.73,11.73,0,0,1-3.93.72c-2.23.11-2.9.13-8.55.13s-6.33,0-8.55-.13a11.83,11.83,0,0,1-3.94-.72,7.09,7.09,0,0,1-4-4,11.79,11.79,0,0,1-.73-3.93c-.16-2.17-.16-2.84-.16-8.5s0-6.32.12-8.54a11.51,11.51,0,0,1,.73-3.94,7,7,0,0,1,4-4,11.27,11.27,0,0,1,3.94-.73c2.26-.17,2.92-.17,8.59-.17s6.32,0,8.55.13a11,11,0,0,1,3.93.73,7,7,0,0,1,4,4,11.9,11.9,0,0,1,.73,3.93c.1,2.22.11,2.89.11,8.55S55.17,44.15,55.06,46.37Z"/><path class="cls-1" d="M37.83,75.65A37.83,37.83,0,1,1,75.65,37.83,37.87,37.87,0,0,1,37.83,75.65ZM37.83,4A33.83,33.83,0,1,0,71.65,37.83,33.86,33.86,0,0,0,37.83,4Z"/></g></g></svg>