<svg xmlns="http://www.w3.org/2000/svg" xmlns:xlink="http://www.w3.org/1999/xlink" viewBox="0 0 45 45"><defs><style>.cls-1{fill:none;}.cls-2{fill:#88aca9;}.cls-3{clip-path:url(#clip-path);}.cls-4{fill:#f9f9f9;}</style><clipPath id="clip-path"><rect class="cls-1" x="8.51" y="8.51" width="27.98" height="27.98"/></clipPath></defs><title>instagram-icon</title><g id="Layer_2" data-name="Layer 2"><g id="Layer_2-2" data-name="Layer 2"><circle class="cls-2" cx="22.5" cy="22.5" r="22.5"/><g class="cls-3"><g class="cls-3"><path class="cls-4" d="M22.5,11c3.74,0,4.18,0,5.65.08a7.7,7.7,0,0,1,2.6.48,4.67,4.67,0,0,1,2.66,2.66,7.7,7.7,0,0,1,.48,2.6c.07,1.47.08,1.91.08,5.65s0,4.18-.08,5.65a7.7,7.7,0,0,1-.48,2.6,4.67,4.67,0,0,1-2.66,2.66,7.7,7.7,0,0,1-2.6.48c-1.47.07-1.91.08-5.65.08s-4.18,0-5.65-.08a7.7,7.7,0,0,1-2.6-.48,4.67,4.67,0,0,1-2.66-2.66,7.7,7.7,0,0,1-.48-2.6C11,26.68,11,26.24,11,22.5s0-4.18.08-5.65a7.7,7.7,0,0,1,.48-2.6,4.67,4.67,0,0,1,2.66-2.66,7.7,7.7,0,0,1,2.6-.48C18.32,11,18.76,11,22.5,11m0-2.52c-3.8,0-4.28,0-5.77.08a10.5,10.5,0,0,0-3.4.65,7.26,7.26,0,0,0-4.09,4.09,10.5,10.5,0,0,0-.65,3.4c-.07,1.49-.08,2-.08,5.77s0,4.28.08,5.77a10.5,10.5,0,0,0,.65,3.4,7.26,7.26,0,0,0,4.09,4.09,10.5,10.5,0,0,0,3.4.65c1.49.07,2,.08,5.77.08s4.28,0,5.77-.08a10.5,10.5,0,0,0,3.4-.65,7.26,7.26,0,0,0,4.09-4.09,10.5,10.5,0,0,0,.65-3.4c.07-1.49.08-2,.08-5.77s0-4.28-.08-5.77a10.5,10.5,0,0,0-.65-3.4,7.26,7.26,0,0,0-4.09-4.09,10.5,10.5,0,0,0-3.4-.65c-1.49-.07-2-.08-5.77-.08"/><path class="cls-4" d="M22.5,15.31a7.19,7.19,0,1,0,7.19,7.19,7.19,7.19,0,0,0-7.19-7.19m0,11.85a4.66,4.66,0,1,1,4.66-4.66,4.65,4.65,0,0,1-4.66,4.66"/><path class="cls-4" d="M31.65,15A1.68,1.68,0,1,1,30,13.35,1.68,1.68,0,0,1,31.65,15"/></g></g></g></g></svg>