<svg xmlns="http://www.w3.org/2000/svg" xmlns:xlink="http://www.w3.org/1999/xlink" viewBox="0 0 45 45"><defs><style>.cls-1{fill:none;}.cls-2{fill:#88aca9;}.cls-3{clip-path:url(#clip-path);}.cls-4{clip-path:url(#clip-path-2);}.cls-5{fill:#f9f9f9;}</style><clipPath id="clip-path"><rect class="cls-1" x="3.92" y="3.93" width="37.15" height="37.15"/></clipPath><clipPath id="clip-path-2"><rect class="cls-1" x="3.92" y="3.93" width="37.15" height="37.15"/></clipPath></defs><title>linkedin-icon</title><g id="Layer_2" data-name="Layer 2"><g id="Layer_2-2" data-name="Layer 2"><circle class="cls-2" cx="22.5" cy="22.5" r="22.5"/><g id="Linkedin_Badge" data-name="Linkedin Badge"><g class="cls-3"><g class="cls-4"><path class="cls-5" d="M9.43,17.85h5.51V35.58H9.43ZM12.19,9A3.2,3.2,0,1,1,9,12.23,3.19,3.19,0,0,1,12.19,9"/><path class="cls-5" d="M18.4,17.85h5.29v2.42h.07A5.8,5.8,0,0,1,29,17.41c5.58,0,6.61,3.67,6.61,8.45v9.72h-5.5V27c0-2.06,0-4.7-2.87-4.7s-3.3,2.24-3.3,4.55v8.77H18.4Z"/></g></g></g></g></g></svg>