<svg xmlns="http://www.w3.org/2000/svg" viewBox="0 0 75.65 75.65"><defs><style>.cls-1{fill:#185d4f;}</style></defs><title>linkedin_1</title><g id="Layer_2" data-name="Layer 2"><g id="Layer_1-2" data-name="Layer 1"><path class="cls-1" d="M27.38,22.52a4.84,4.84,0,1,1-4.92-4.83h.06A4.85,4.85,0,0,1,27.38,22.52Z"/><rect class="cls-1" x="18.34" y="31.08" width="8.33" height="26.82"/><path class="cls-1" d="M58,43.2V57.9H49.63v-13c0-3.12,0-7.11-4.34-7.11s-5,3.38-5,6.88V58H31.91V31.08h8v3.65H40A8.79,8.79,0,0,1,48,30.41C56.39,30.41,58,36,58,43.2Z"/><path class="cls-1" d="M37.83,75.65A37.83,37.83,0,1,1,75.65,37.83,37.87,37.87,0,0,1,37.83,75.65ZM37.83,4A33.83,33.83,0,1,0,71.65,37.83,33.86,33.86,0,0,0,37.83,4Z"/></g></g></svg>